<svg id="SvgjsSvg1024" xmlns="http://www.w3.org/2000/svg" version="1.1" xmlns:xlink="http://www.w3.org/1999/xlink" xmlns:svgjs="http://svgjs.com/svgjs" width="13" height="13" viewBox="0 0 13 13"><title>Фигура 4</title><desc>Created with Avocode.</desc><defs id="SvgjsDefs1025"></defs><path id="SvgjsPath1026" d="M742.828 180.829C742.607 181.05 742.247 181.05 742.026 180.829L738.6089999999999 177.41400000000002C737.7009999999999 178.14600000000002 736.56 178.584 735.2969999999999 178.584C732.3689999999999 178.584 730.0009999999999 176.218 730.0009999999999 173.292C730.0009999999999 170.367 732.3689999999999 168 735.2969999999999 168C738.2249999999999 168 740.593 170.367 740.593 173.292C740.593 174.555 740.154 175.704 739.4119999999999 176.611C739.4119999999999 176.611 739.4119999999999 176.612 739.411 176.613L742.828 180.026C743.05 180.24800000000002 743.05 180.607 742.828 180.829ZM739.458 173.292C739.458 170.994 737.597 169.13400000000001 735.297 169.13400000000001C732.998 169.13400000000001 731.1360000000001 170.99400000000003 731.1360000000001 173.292C731.1360000000001 175.591 732.998 177.45 735.297 177.45C737.597 177.45 739.458 175.59099999999998 739.458 173.292Z " fill="#ffffff" fill-opacity="1" transform="matrix(1,0,0,1,-730,-168)"></path><path id="SvgjsPath1027" d="M742.828 180.829C742.607 181.05 742.247 181.05 742.026 180.829L738.6089999999999 177.41400000000002C737.7009999999999 178.14600000000002 736.56 178.584 735.2969999999999 178.584C732.3689999999999 178.584 730.0009999999999 176.218 730.0009999999999 173.292C730.0009999999999 170.367 732.3689999999999 168 735.2969999999999 168C738.2249999999999 168 740.593 170.367 740.593 173.292C740.593 174.555 740.154 175.704 739.4119999999999 176.611C739.4119999999999 176.611 739.4119999999999 176.612 739.411 176.613L742.828 180.026C743.05 180.24800000000002 743.05 180.607 742.828 180.829ZM739.458 173.292C739.458 170.994 737.597 169.13400000000001 735.297 169.13400000000001C732.998 169.13400000000001 731.1360000000001 170.99400000000003 731.1360000000001 173.292C731.1360000000001 175.591 732.998 177.45 735.297 177.45C737.597 177.45 739.458 175.59099999999998 739.458 173.292Z " fill="#87888c" fill-opacity="1" transform="matrix(1,0,0,1,-730,-168)"></path></svg>