<svg xmlns="http://www.w3.org/2000/svg" xmlns:xlink="http://www.w3.org/1999/xlink" preserveAspectRatio="xMidYMid" width="36" height="36" viewBox="-1 0 38 38">
  <path d="M18.005,36.000 C8.080,36.000 0.006,27.924 0.006,17.999 C0.006,8.074 8.080,-0.001 18.005,-0.001 C27.930,-0.001 36.006,8.074 36.006,17.999 C36.006,27.924 27.930,36.000 18.005,36.000 ZM18.005,1.564 C8.943,1.564 1.570,8.937 1.570,17.999 C1.570,27.062 8.943,34.434 18.005,34.434 C27.067,34.434 34.440,27.062 34.440,17.999 C34.440,8.937 27.067,1.564 18.005,1.564 ZM21.581,19.172 L19.034,19.172 L19.034,28.173 L15.218,28.173 L15.218,19.172 L13.309,19.172 L13.309,16.070 L15.218,16.070 L15.218,14.209 C15.218,11.679 16.294,10.173 19.353,10.173 L21.901,10.173 L21.901,13.276 L20.309,13.276 C19.118,13.276 19.038,13.709 19.038,14.518 L19.034,16.070 L21.919,16.070 L21.581,19.172 Z" />
</svg>
