<svg xmlns="http://www.w3.org/2000/svg" xmlns:xlink="http://www.w3.org/1999/xlink" preserveAspectRatio="xMidYMid" width="36" height="36" viewBox="-1 0 38 38">
  <path d="M17.992,36.000 C8.066,36.000 -0.009,27.924 -0.009,17.999 C-0.009,8.074 8.066,-0.001 17.992,-0.001 C27.917,-0.001 35.991,8.074 35.991,17.999 C35.991,27.924 27.917,36.000 17.992,36.000 ZM17.992,1.564 C8.930,1.564 1.557,8.937 1.557,17.999 C1.557,27.062 8.930,34.434 17.992,34.434 C27.053,34.434 34.427,27.062 34.427,17.999 C34.427,8.937 27.053,1.564 17.992,1.564 ZM27.207,20.831 L25.563,20.831 L25.563,18.460 L23.196,18.460 L23.196,16.813 L25.563,16.813 L25.563,14.509 L27.207,14.509 L27.207,16.813 L29.506,16.813 L29.506,18.460 L27.207,18.460 L27.207,20.831 ZM15.242,24.652 C11.573,24.652 8.601,21.672 8.601,17.999 C8.601,14.324 11.573,11.347 15.242,11.347 C16.962,11.347 18.529,12.002 19.709,13.077 C18.320,14.393 18.365,14.471 17.818,15.018 C17.137,14.453 16.393,14.047 15.242,14.047 C13.062,14.047 11.362,15.816 11.362,17.999 C11.362,20.181 13.062,21.951 15.242,21.951 C17.394,21.951 18.269,21.021 18.831,19.313 C17.793,19.313 15.242,19.317 15.242,19.317 L15.242,16.682 L21.619,16.682 C22.062,19.870 20.723,24.652 15.242,24.652 Z" />
</svg>
