<svg xmlns="http://www.w3.org/2000/svg" xmlns:xlink="http://www.w3.org/1999/xlink" preserveAspectRatio="xMidYMid" width="36" height="36" viewBox="0 0 36 36">
  <path d="M17.998,36.000 C8.072,36.000 -0.002,27.924 -0.002,17.999 C-0.002,8.074 8.072,-0.001 17.998,-0.001 C27.923,-0.001 35.998,8.074 35.998,17.999 C35.998,27.924 27.923,36.000 17.998,36.000 ZM17.998,1.564 C8.936,1.564 1.563,8.937 1.563,17.999 C1.563,27.062 8.936,34.434 17.998,34.434 C27.061,34.434 34.434,27.062 34.434,17.999 C34.434,8.937 27.061,1.564 17.998,1.564 ZM24.924,15.247 C24.932,15.399 24.934,15.553 24.934,15.707 C24.934,20.406 21.543,25.825 15.341,25.825 C13.436,25.825 11.665,25.236 10.173,24.228 C10.436,24.261 10.704,24.277 10.977,24.277 C12.556,24.277 14.009,23.709 15.164,22.755 C13.688,22.727 12.443,21.697 12.015,20.285 C12.219,20.327 12.431,20.349 12.649,20.349 C12.957,20.349 13.254,20.307 13.537,20.224 C11.994,19.898 10.832,18.460 10.832,16.737 L10.832,16.693 C11.288,16.957 11.808,17.119 12.360,17.138 C11.456,16.499 10.861,15.410 10.861,14.177 C10.861,13.526 11.026,12.916 11.316,12.388 C12.980,14.541 15.464,15.956 18.265,16.104 C18.207,15.845 18.181,15.573 18.181,15.295 C18.181,13.331 19.689,11.738 21.551,11.738 C22.521,11.738 23.397,12.170 24.011,12.861 C24.780,12.702 25.500,12.407 26.153,11.999 C25.902,12.829 25.368,13.526 24.671,13.965 C25.351,13.880 26.003,13.689 26.608,13.406 C26.156,14.120 25.584,14.745 24.924,15.247 Z"/>
</svg>
