<svg xmlns="http://www.w3.org/2000/svg" xmlns:xlink="http://www.w3.org/1999/xlink" preserveAspectRatio="xMidYMid" width="36" height="36" viewBox="-1 0 38 38">
  <path d="M17.999,36.000 C8.073,36.000 -0.002,27.924 -0.002,17.999 C-0.002,8.074 8.073,-0.001 17.999,-0.001 C27.923,-0.001 35.998,8.074 35.998,17.999 C35.998,27.924 27.923,36.000 17.999,36.000 ZM17.999,1.564 C8.936,1.564 1.564,8.937 1.564,17.999 C1.564,27.062 8.936,34.434 17.999,34.434 C27.061,34.434 34.433,27.062 34.433,17.999 C34.433,8.937 27.061,1.564 17.999,1.564 ZM25.272,20.863 C26.839,22.288 27.161,22.982 27.215,23.068 C27.863,24.124 26.496,24.207 26.496,24.207 L23.883,24.242 C23.883,24.242 23.322,24.351 22.584,23.853 C21.606,23.195 20.684,21.482 19.967,21.706 C19.239,21.933 19.260,23.473 19.260,23.473 C19.260,23.473 19.266,23.802 19.101,23.977 C18.920,24.168 18.566,24.207 18.566,24.207 L17.397,24.207 C17.397,24.207 14.817,24.359 12.545,22.036 C10.066,19.502 7.878,14.477 7.878,14.477 C7.878,14.477 7.751,14.147 7.888,13.989 C8.041,13.809 8.462,13.798 8.462,13.798 L11.258,13.780 C11.258,13.780 11.520,13.822 11.710,13.958 C11.866,14.071 11.953,14.281 11.953,14.281 C11.953,14.281 12.404,15.402 13.003,16.417 C14.171,18.398 14.714,18.830 15.110,18.619 C15.688,18.309 15.514,15.818 15.514,15.818 C15.514,15.818 15.526,14.914 15.224,14.512 C14.990,14.200 14.550,14.109 14.356,14.083 C14.198,14.062 14.457,13.704 14.792,13.544 C15.294,13.302 16.182,13.287 17.232,13.298 C18.051,13.306 18.285,13.356 18.606,13.432 C19.569,13.660 19.242,14.542 19.242,16.659 C19.242,17.336 19.118,18.289 19.616,18.606 C19.831,18.741 20.354,18.626 21.665,16.442 C22.285,15.408 22.750,14.191 22.750,14.191 C22.750,14.191 22.853,13.974 23.011,13.881 C23.173,13.786 23.391,13.816 23.391,13.816 L26.332,13.798 C26.332,13.798 27.215,13.693 27.358,14.086 C27.509,14.497 27.029,15.457 25.826,17.029 C23.853,19.611 23.633,19.369 25.272,20.863 Z"/>
</svg>
