<?xml version="1.0" encoding="utf-8"?>
<!-- Generator: Adobe Illustrator 19.2.1, SVG Export Plug-In . SVG Version: 6.00 Build 0)  -->
<svg version="1.1" id="Layer_1" xmlns="http://www.w3.org/2000/svg" xmlns:xlink="http://www.w3.org/1999/xlink" x="0px" y="0px"
	 viewBox="0 0 90 66.9" style="enable-background:new 0 0 90 66.9;" xml:space="preserve">
<g>
	<path d="M75.1,18.5h-5.7c-0.5,0-1,0.2-1.3,0.5c-0.4-0.3-0.8-0.5-1.3-0.5h-5.7c-0.5,0-1,0.2-1.3,0.5c-0.4-0.3-0.8-0.5-1.3-0.5h-5.7
		c-1.1,0-2,0.9-2,2v5.7c0,0.5,0.2,1,0.5,1.3c-0.3,0.4-0.5,0.8-0.5,1.3v5.7c0,0.5,0.2,1,0.5,1.3c-0.3,0.4-0.5,0.8-0.5,1.3v5.7
		c0,1.1,0.9,2,2,2h5.7c0.5,0,1-0.2,1.3-0.5c0.4,0.3,0.8,0.5,1.3,0.5h5.7c0.5,0,1-0.2,1.3-0.5c0.4,0.3,0.8,0.5,1.3,0.5h5.7
		c1.1,0,2-0.9,2-2v-5.7c0-0.5-0.2-1-0.5-1.3c0.3-0.4,0.5-0.8,0.5-1.3v-5.7c0-0.5-0.2-1-0.5-1.3c0.3-0.4,0.5-0.8,0.5-1.3v-5.7
		C77.1,19.4,76.3,18.5,75.1,18.5z M58.5,42.8h-5.7v-5.7h5.7V42.8z M58.5,34.5h-5.7v-5.7h5.7V34.5z M58.5,26.1h-5.7v-5.7h5.7V26.1z
		 M66.8,42.8h-5.7v-5.7h5.7V42.8z M66.8,34.5h-5.7v-5.7h5.7V34.5z M66.8,26.1h-5.7v-5.7h5.7V26.1z M75.1,42.8h-5.7v-5.7h5.7V42.8z
		 M75.1,34.5h-5.7v-5.7h5.7V34.5z M75.1,26.1h-5.7v-5.7h5.7V26.1z"/>
	<path d="M74.9,8.5H15.1c-3.7,0-6.6,3-6.6,6.6v33.1c0,3.7,3,6.6,6.6,6.6h59.8c3.7,0,6.6-3,6.6-6.6V15.1C81.5,11.4,78.6,8.5,74.9,8.5
		z M79.5,48.2c0,2.6-2.1,4.6-4.6,4.6H15.1c-2.5,0-4.6-2.1-4.6-4.6V15.1c0-2.5,2.1-4.6,4.6-4.6h59.8c2.6,0,4.6,2.1,4.6,4.6V48.2z"/>
	<path d="M31,12.9c-10.1,0-18.3,8.2-18.3,18.3v0.9c0,10.1,8.2,18.3,18.3,18.3l0,0c10.1,0,18.3-8.2,18.3-18.3v-0.9
		C49.2,21.1,41,12.9,31,12.9z M47.2,32.1c0,8.9-7.3,16.3-16.3,16.3l0,0c-8.9,0-16.3-7.3-16.3-16.3v-0.9c0-8.9,7.3-16.3,16.3-16.3
		l0,0c8.9,0,16.3,7.3,16.3,16.3C47.2,31.2,47.2,32.1,47.2,32.1z"/>
	<path d="M78,0H12C5.4,0,0,5.4,0,12v39.2c0,6.6,5.4,12,12,12h2.7v0.9c0,1.5,1.2,2.7,2.7,2.7h1.9c1.5,0,2.7-1.2,2.7-2.7v-0.9h45.6
		v0.9c0,1.5,1.2,2.7,2.7,2.7h1.9c1.5,0,2.7-1.2,2.7-2.7v-0.9H78c6.6,0,12-5.4,12-12V12C90,5.4,84.6,0,78,0z M87.3,51.2
		c0,5.2-4.2,9.4-9.4,9.4H12c-5.2,0-9.4-4.2-9.4-9.4V12c0-5.2,4.2-9.4,9.4-9.4H78c5.2,0,9.4,4.2,9.4,9.4L87.3,51.2L87.3,51.2z"/>
</g>
</svg>
