<svg xmlns="http://www.w3.org/2000/svg" xmlns:xlink="http://www.w3.org/1999/xlink" preserveAspectRatio="xMidYMid" width="38" height="38" viewBox="-12 -5 55 40">
  <defs>
    <style>
      .cls-1 {
        fill: #8dd22b;
        filter: url(#color-overlay-1);
        opacity: 0.5;
        fill-rule: evenodd;
      }
    </style>

    <filter id="color-overlay-1" filterUnits="userSpaceOnUse">
      <feFlood flood-color="#10b510"/>
      <feComposite operator="in" in2="SourceGraphic"/>
      <feBlend in2="SourceGraphic" result="solidFill"/>
    </filter>
  </defs>
  <path d="M19.499,38.999 C8.730,38.999 -0.001,30.268 -0.001,19.500 C-0.001,8.730 8.730,-0.001 19.499,-0.001 C30.268,-0.001 38.999,8.730 38.999,19.500 C38.999,30.268 30.268,38.999 19.499,38.999 ZM19.499,2.096 C9.903,2.096 2.097,9.904 2.097,19.500 C2.097,29.096 9.903,36.902 19.499,36.902 C29.095,36.902 36.903,29.096 36.903,19.500 C36.903,9.904 29.095,2.096 19.499,2.096 ZM14.617,28.012 L23.290,19.175 L14.617,10.338 L15.856,9.076 L25.768,19.175 L15.856,29.275 L14.617,28.012 Z" class="cls-1"/>
</svg>
