<?xml version="1.0" encoding="utf-8"?>
<!-- Generator: Adobe Illustrator 19.2.1, SVG Export Plug-In . SVG Version: 6.00 Build 0)  -->
<svg version="1.1" id="Layer_1" xmlns="http://www.w3.org/2000/svg" xmlns:xlink="http://www.w3.org/1999/xlink" x="0px" y="0px"
	 viewBox="0 0 86.8 88.3" style="enable-background:new 0 0 86.8 88.3;" xml:space="preserve">
<g>
	<path d="M77.1,78c-0.1,0-0.2-0.1-0.3-0.1c-0.5-0.1-1.1,0.1-1.4,0.4s-0.5,0.7-0.5,1.1s0.2,0.8,0.5,1.1c0.1,0.2,0.3,0.3,0.5,0.3
		c0.2,0.1,0.4,0.1,0.6,0.1s0.4,0,0.6-0.1s0.4-0.2,0.5-0.3c0.2-0.2,0.3-0.3,0.3-0.5c0.1-0.2,0.1-0.4,0.1-0.6c0-0.4-0.2-0.8-0.5-1.1
		c-0.1-0.1-0.2-0.1-0.2-0.2C77.3,78.1,77.2,78.1,77.1,78z"/>
	<path d="M71.1,57.7h13.1v-3.2H71.1v-3.7h-3.2v3.7h-8.5v4.9h-1.9l-7.8-6.9H27.6l-0.2,1.4c0,0.1-0.1,0.8-0.1,0.9
		c0,1.6,0.5,3.2,1.4,4.6H28l-5-7.7c-1.7-3.3-5.4-5.9-9.2-4.6L12,47.7c-0.1,0-0.2,0.1-0.3,0.1l-1.6,0.7l0.8,1.4
		c-2.8-1.1-6.1-1.1-8.3,1.2l-1.3,1.3c-0.1,0.1-0.2,0.2-0.2,0.3L0,54l19.6,13.5l29,10.8h10.9v3.3H68v6.7h18.8v-3.2H71.1V57.7z
		 M14.8,50.1c2.1-0.7,4.4,1.1,5.4,3.2l2.1,3.2l-6.4-3.7l0.1-0.1l-1.4-2.5L14.8,50.1z M49.1,75.1l-28-10.3L4.7,53.4l0.1-0.1
		c1.6-1.6,4.4-1,6.3,0.4L22,60l4.6,2.7h6.9c0.1,0,0.3,0,0.4,0h11.3v-3.2H33.7c-1.6-0.3-2.9-2.1-3.2-3.7h18l7.8,6.9h3.1v12.5
		L49.1,75.1L49.1,75.1z M62.6,78.4V57.7h5.3v20.7C67.9,78.4,62.6,78.4,62.6,78.4z"/>
	<path d="M37,49.5c8.6,0,15.6-7,15.6-15.6s-7-15.6-15.6-15.6s-15.6,7-15.6,15.6S28.4,49.5,37,49.5z M37,21.5
		c6.8,0,12.4,5.6,12.4,12.4S43.8,46.3,37,46.3s-12.4-5.6-12.4-12.4C24.6,27.1,30.2,21.5,37,21.5z"/>
	<rect x="22.3" y="10.4" width="3.2" height="9.5"/>
	<rect x="29.2" y="1.5" width="3.2" height="13.7"/>
	<rect x="36.3" y="9.1" width="3.2" height="6"/>
	<rect x="45.9" width="3.2" height="17.4"/>
	<g>
		<path d="M31.7,39.8V27h3.4l2.7,4.7c0.8,1.3,1.5,2.9,2.1,4.4h0.1c-0.2-1.7-0.2-3.4-0.2-5.3V27h2.7v12.8h-3l-2.7-4.9
			c-0.8-1.4-1.6-3-2.2-4.5l-0.1,0c0.1,1.7,0.1,3.5,0.1,5.6v3.9H31.7z"/>
	</g>
</g>
</svg>
