<?xml version="1.0" encoding="utf-8"?>
<!-- Generator: Adobe Illustrator 19.2.1, SVG Export Plug-In . SVG Version: 6.00 Build 0)  -->
<svg version="1.1" id="Layer_1" xmlns="http://www.w3.org/2000/svg" xmlns:xlink="http://www.w3.org/1999/xlink" x="0px" y="0px"
	 viewBox="0 0 70.8 86.7" style="enable-background:new 0 0 70.8 86.7;" xml:space="preserve">
<g>
	<path d="M0,86.7h70.8V0H0V86.7z M3.2,3.2h64.5v80.3H3.2V3.2z"/>
	<path d="M8.1,32.7h54.6V9.8H8.1V32.7z M11.3,13h48.3v16.5H11.3V13z"/>
	<path d="M8.4,54.8h16.2V38.6H8.4V54.8z M11.6,41.8h9.8v9.8h-9.8V41.8z"/>
	<path d="M8.4,76.3h16.2V60.2H8.4V76.3z M11.6,63.3h9.8v9.8h-9.8V63.3z"/>
	<path d="M28.2,54.8h16.2V38.6H28.2V54.8z M31.3,41.8h9.8v9.8h-9.8V41.8z"/>
	<path d="M28.2,76.3h16.2V60.2H28.2V76.3z M31.3,63.3h9.8v9.8h-9.8V63.3z"/>
	<polygon points="56.3,39.4 53.2,39.4 53.2,45.2 47.5,45.2 47.5,48.3 53.2,48.3 53.2,54 56.3,54 56.3,48.3 62.1,48.3 62.1,45.2 
		56.3,45.2 	"/>
	<rect x="47.5" y="66.5" width="14.6" height="3.2"/>
	<path d="M51.2,14.1c-2.9,0-5.3,2.4-5.3,5.3v3.8c0,2.9,2.4,5.3,5.3,5.3c2.9,0,5.3-2.4,5.3-5.3v-3.8C56.4,16.4,54.1,14.1,51.2,14.1z
		 M53.3,23.2c0,1.2-1,2.1-2.1,2.1s-2.1-1-2.1-2.1v-3.8c0-1.2,1-2.1,2.1-2.1s2.1,0.9,2.1,2.1V23.2z"/>
	<path d="M39,14.1c-2.9,0-5.3,2.4-5.3,5.3v3.8c0,2.9,2.4,5.3,5.3,5.3s5.3-2.4,5.3-5.3v-3.8C44.3,16.4,41.9,14.1,39,14.1z M41.1,23.2
		c0,1.2-1,2.1-2.1,2.1s-2.1-1-2.1-2.1v-3.8c0-1.2,1-2.1,2.1-2.1s2.1,0.9,2.1,2.1V23.2z"/>
</g>
</svg>
